<svg width="1920" height="1080" viewBox="0 0 1920 1080" xmlns="http://www.w3.org/2000/svg"><path d="M 0,1080 C 0,1080 0,90 0,90 C 32.97485207540829,92.64415696831378 65.94970415081659,95.28831393662757 107,88 C 148.0502958491834,80.71168606337243 197.17603547214196,63.490901221803455 240,67 C 282.82396452785804,70.50909877819655 319.3461539606156,94.74808117615856 358,105 C 396.6538460393844,115.25191882384144 437.43934868539554,111.51677407356232 467,107 C 496.56065131460446,102.48322592643768 514.8964512978021,97.18482252959222 550,92 C 585.1035487021979,86.81517747040778 636.9748461233961,81.74393580806881 679,90 C 721.0251538766039,98.25606419193119 753.2041642086135,119.83943423813253 791,113 C 828.7958357913865,106.16056576186747 872.2084970421497,70.89832723940106 911,67 C 949.7915029578503,63.101672760598944 983.9618476227874,90.56725680426324 1016,91 C 1048.0381523772126,91.43274319573676 1077.9441124667007,64.83264554354598 1112,66 C 1146.0558875332993,67.16735445645402 1184.2617025104103,96.10216102155283 1227,97 C 1269.7382974895897,97.89783897844717 1317.0090774916591,70.7587103702427 1356,70 C 1394.9909225083409,69.2412896297573 1425.7019875229532,94.86299749747641 1464,109 C 1502.2980124770468,123.13700250252359 1548.182972416528,125.78929963985168 1587,114 C 1625.817027583472,102.21070036014832 1657.5661228109348,75.97980394311686 1694,68 C 1730.4338771890652,60.02019605688314 1771.552536339733,70.2914845876809 1810,77 C 1848.447463660267,83.7085154123191 1884.2237318301336,86.85425770615956 1920,90 C 1920,90 1920,1080 1920,1080 Z" fill="#444cf7" opacity="0.049999999999999996"/><path d="M 0,1080 C 0,1080 0,180 0,180 C 50.74711471408202,174.06644216142402 101.49422942816403,168.13288432284804 133,178 C 164.50577057183597,187.86711567715196 176.7701970014259,213.53490487003177 209,210 C 241.2298029985741,206.46509512996823 293.42498256613226,173.72749619702498 342,173 C 390.57501743386774,172.27250380297502 435.529872734045,203.55511034186833 467,205 C 498.470127265955,206.44488965813167 516.4555264976875,178.0520624355017 552,160 C 587.5444735023125,141.9479375644983 640.6480212752048,134.2366399161249 686,150 C 731.3519787247952,165.7633600838751 768.9523884014934,205.00137789999874 806,212 C 843.0476115985066,218.99862210000126 879.542425118822,193.7578484838801 913,186 C 946.457574881178,178.2421515161199 976.8779111232182,187.96722816448082 1015,184 C 1053.1220888767818,180.03277183551918 1098.945930388305,162.37323885819671 1142,154 C 1185.054069611695,145.62676114180329 1225.3383673235621,146.5398164027323 1261,159 C 1296.6616326764379,171.4601835972677 1327.7006003174467,195.4674955308741 1359,207 C 1390.2993996825533,218.5325044691259 1421.8592314066511,217.59020147377132 1455,212 C 1488.1407685933489,206.40979852622868 1522.862474055949,196.17169857404068 1568,198 C 1613.137525944051,199.82830142595932 1668.690872369552,213.72300423006598 1706,208 C 1743.309127630448,202.27699576993402 1762.3740364658424,176.93628450569543 1795,169 C 1827.6259635341576,161.06371549430457 1873.8129817670788,170.5318577471523 1920,180 C 1920,180 1920,1080 1920,1080 Z" fill="#444cf7" opacity="0.09999999999999999"/><path d="M 0,1080 C 0,1080 0,270 0,270 C 44.16190384394008,258.5738729042587 88.32380768788016,247.1477458085174 130,249 C 171.67619231211984,250.8522541914826 210.86667309241938,265.9828896701891 239,266 C 267.1333269075806,266.0171103298109 284.20949994244233,250.92069551072635 320,242 C 355.79050005755767,233.07930448927365 410.29532713781117,230.33432828690542 454,243 C 497.70467286218883,255.66567171309458 530.609191506313,283.741991341652 568,286 C 605.390808493687,288.258008658348 647.2679068369372,264.6977063464865 685,255 C 722.7320931630628,245.30229365351354 756.3191811459384,249.467183272402 787,262 C 817.6808188540616,274.532816727598 845.4553685793089,295.4335605639055 886,295 C 926.5446314206911,294.5664394360945 979.859344536826,272.79857447197605 1016,265 C 1052.140655463174,257.20142552802395 1071.107253273387,263.37214154819026 1114,264 C 1156.892746726613,264.62785845180974 1223.711642369626,259.7128593352628 1263,259 C 1302.288357630374,258.2871406647372 1314.0461772481092,261.77642111075863 1345,268 C 1375.9538227518908,274.22357888924137 1426.1036486379376,283.1814562217028 1475,284 C 1523.8963513620624,284.8185437782972 1571.5392282001403,277.4977540024302 1601,282 C 1630.4607717998597,286.5022459975698 1641.7394385615007,302.82752776857643 1675,303 C 1708.2605614384993,303.17247223142357 1763.5030175538568,287.19213492326384 1808,279 C 1852.4969824461432,270.80786507673616 1886.2484912230716,270.40393253836805 1920,270 C 1920,270 1920,1080 1920,1080 Z" fill="#444cf7" opacity="0.15"/><path d="M 0,1080 C 0,1080 0,360 0,360 C 29.229216538594002,361.71858273959754 58.458433077188005,363.43716547919513 101,358 C 143.541566922812,352.56283452080487 199.39548422984194,339.9699208228171 239,337 C 278.60451577015806,334.0300791771829 301.9596300034444,340.6831512295366 339,346 C 376.0403699965556,351.3168487704634 426.76599575638045,355.29747425903656 469,364 C 511.23400424361955,372.70252574096344 544.9763869710338,386.1269517343172 580,384 C 615.0236130289662,381.8730482656828 651.3284563594846,364.1947188036948 684,362 C 716.6715436405154,359.8052811963052 745.7097875910282,373.09417305090375 778,370 C 810.2902124089718,366.90582694909625 845.8323932764022,347.4285889926904 883,346 C 920.1676067235978,344.5714110073096 958.9606393033625,361.1914709783349 998,358 C 1037.0393606966375,354.8085290216651 1076.3250495101474,331.8055270939701 1122,338 C 1167.6749504898526,344.1944729060299 1219.7391626560475,379.5864206457847 1253,382 C 1286.2608373439525,384.4135793542153 1300.718299865663,353.8487903228911 1338,353 C 1375.281700134337,352.1512096771089 1435.3876378813004,381.01841806265077 1484,384 C 1532.6123621186996,386.98158193734923 1569.7311486091357,364.07753742650596 1601,350 C 1632.2688513908643,335.92246257349404 1657.6877676821557,330.6714322313253 1695,342 C 1732.3122323178443,353.3285677686747 1781.5177806622412,381.23673364819274 1821,387 C 1860.4822193377588,392.76326635180726 1890.2411096688793,376.38163317590363 1920,360 C 1920,360 1920,1080 1920,1080 Z" fill="#444cf7" opacity="0.19999999999999998"/><path d="M 0,1080 C 0,1080 0,450 0,450 C 38.8477919531271,435.0352398935415 77.6955839062542,420.07047978708295 119,423 C 160.3044160937458,425.92952021291705 204.06545632811032,446.7533207452098 234,455 C 263.9345436718897,463.2466792547902 280.04259078130474,458.91623723207783 322,453 C 363.95740921869526,447.08376276792217 431.7641805466708,439.58173032647903 471,436 C 510.2358194533292,432.41826967352097 520.9006870320122,432.7568414620058 553,439 C 585.0993129679878,445.2431585379942 638.6330713252802,457.3909038254975 678,458 C 717.3669286747198,458.6090961745025 742.567027666867,447.67954323600406 773,445 C 803.432972333133,442.32045676399594 839.0988180072519,447.89092323048607 886,455 C 932.9011819927481,462.10907676951393 991.0377003041256,470.75676384205195 1034,468 C 1076.9622996958744,465.24323615794805 1104.7503807762448,451.0820214013059 1143,449 C 1181.2496192237552,446.9179785986941 1229.9607765908952,456.9151505527243 1262,455 C 1294.0392234091048,453.0848494472757 1309.4065128601746,439.257376387797 1339,431 C 1368.5934871398254,422.742623612203 1412.4131719684062,420.05534389608755 1453,418 C 1493.5868280315938,415.94465610391245 1530.9407992662004,414.5212480278528 1570,423 C 1609.0592007337996,431.4787519721472 1649.823630966792,449.8596639925012 1695,451 C 1740.176369033208,452.1403360074988 1789.764676866631,436.0400960021425 1828,433 C 1866.235323133369,429.9599039978575 1893.1176615666845,439.97995199892875 1920,450 C 1920,450 1920,1080 1920,1080 Z" fill="#444cf7" opacity="0.24999999999999997"/><path d="M 0,1080 C 0,1080 0,540 0,540 C 34.085484212140514,552.4414205852979 68.17096842428103,564.8828411705957 104,569 C 139.82903157571897,573.1171588294043 177.4016105150164,568.9100559029147 221,554 C 264.5983894849836,539.0899440970853 314.2225895156535,513.4769352177454 350,513 C 385.7774104843465,512.5230647822546 407.70803142236974,537.1822032261035 438,553 C 468.29196857763026,568.8177967738965 506.94528479486746,575.7942518778407 546,572 C 585.0547152051325,568.2057481221593 624.5108293981605,553.6407892625339 663,541 C 701.4891706018395,528.3592107374661 739.0113976124903,517.6425910720241 782,518 C 824.9886023875097,518.3574089279759 873.443580151878,529.7888464493701 916,545 C 958.556419848122,560.2111535506299 995.2142817799975,579.202023130496 1034,569 C 1072.7857182200025,558.797976869504 1113.6992927281315,519.4030610286464 1146,519 C 1178.3007072718685,518.5969389713536 1201.988547307476,557.1857327549184 1238,566 C 1274.011452692524,574.8142672450816 1322.3465180419641,553.8540079516799 1361,543 C 1399.6534819580359,532.1459920483201 1428.625380524667,531.3982354383621 1466,538 C 1503.374619475333,544.6017645616379 1549.1519598593677,558.5530502948719 1583,564 C 1616.8480401406323,569.4469497051281 1638.7667800378626,566.3895633821498 1674,564 C 1709.2332199621374,561.6104366178502 1757.7809199891822,559.8886961765286 1801,556 C 1844.2190800108178,552.1113038234714 1882.109540005409,546.0556519117357 1920,540 C 1920,540 1920,1080 1920,1080 Z" fill="#444cf7" opacity="0.3"/><path d="M 0,1080 C 0,1080 0,630 0,630 C 33.76163531368658,640.9122733177842 67.52327062737317,651.8245466355685 111,658 C 154.47672937262683,664.1754533644315 207.668552804194,665.6140867755105 242,656 C 276.331447195806,646.3859132244895 291.8025181558507,625.7191062623898 326,615 C 360.1974818441493,604.2808937376102 413.1213745724032,603.5094881749302 456,598 C 498.8786254275968,592.4905118250698 531.7119835545365,582.2429410378893 569,598 C 606.2880164454635,613.7570589621107 648.0306912094505,655.5187476735125 687,655 C 725.9693087905495,654.4812523264875 762.1652516076613,611.6820682680608 791,611 C 819.8347483923387,610.3179317319392 841.3083023599049,651.7529792542446 882,658 C 922.6916976400951,664.2470207457554 982.6015389527195,635.3060147149614 1030,623 C 1077.3984610472805,610.6939852850386 1112.2855418292177,615.0229618859097 1146,624 C 1179.7144581707823,632.9770381140903 1212.25629373041,646.6021377413994 1245,645 C 1277.74370626959,643.3978622586006 1310.6892832491424,626.5684871484926 1348,615 C 1385.3107167508576,603.4315128515074 1426.98657327302,597.1239136646305 1464,601 C 1501.01342672698,604.8760863353695 1533.3644236587784,618.9358581929856 1571,620 C 1608.6355763412216,621.0641418070144 1651.5557320918674,609.1326535634269 1694,616 C 1736.4442679081326,622.8673464365731 1778.4126479737522,648.5335275533065 1816,654 C 1853.5873520262478,659.4664724466935 1886.7936760131238,644.7332362233467 1920,630 C 1920,630 1920,1080 1920,1080 Z" fill="#444cf7" opacity="0.35"/><path d="M 0,1080 C 0,1080 0,720 0,720 C 31.370818122669178,729.7755764978144 62.741636245338356,739.5511529956287 100,738 C 137.25836375466164,736.4488470043713 180.40427314131574,723.5709645152994 220,722 C 259.59572685868426,720.4290354847006 295.6412711893986,730.1649889431739 335,734 C 374.3587288106014,737.8350110568261 417.03064210109005,735.7690797120048 459,732 C 500.96935789890995,728.2309202879952 542.2361604062412,722.7586922088068 574,715 C 605.7638395937588,707.2413077911932 628.0247162739454,697.1961514527685 663,695 C 697.9752837260546,692.8038485472315 745.6649744979773,698.4567019801193 791,698 C 836.3350255020227,697.5432980198807 879.3153857341457,690.9770406267543 922,703 C 964.6846142658543,715.0229593732457 1007.0734825654399,745.6351355128637 1036,744 C 1064.92651743456,742.3648644871363 1080.3906840040947,708.4824173217909 1111,698 C 1141.6093159959053,687.5175826782091 1187.363781418181,700.4351951999723 1234,708 C 1280.636218581819,715.5648048000277 1328.1541903231816,717.7768018783197 1367,715 C 1405.8458096768184,712.2231981216803 1436.0194572890923,704.4575972867485 1470,710 C 1503.9805427109077,715.5424027132515 1541.7679805204493,734.3928089746859 1574,742 C 1606.2320194795507,749.6071910253141 1632.9086206291097,745.9711668145077 1676,740 C 1719.0913793708903,734.0288331854923 1778.5975369631115,725.7225237672835 1822,722 C 1865.4024630368885,718.2774762327165 1892.7012315184443,719.1387381163582 1920,720 C 1920,720 1920,1080 1920,1080 Z" fill="#444cf7" opacity="0.39999999999999997"/><path d="M 0,1080 C 0,1080 0,810 0,810 C 23.854411262438106,805.1544133257194 47.70882252487621,800.3088266514387 92,809 C 136.2911774751238,817.6911733485613 201.01912116293323,839.9191067199647 242,839 C 282.98087883706677,838.0808932800353 300.2146928233909,814.0147464687026 334,803 C 367.7853071766091,791.9852535312974 418.12210754350303,794.0219074052252 455,793 C 491.87789245649697,791.9780925947748 515.2968770025967,787.8976239103966 556,784 C 596.7031229974033,780.1023760896034 654.6903844461106,776.3875969531881 689,789 C 723.3096155538894,801.6124030468119 733.9415852129614,830.5519882768507 770,840 C 806.0584147870386,849.4480117231493 867.543274702044,839.404449939409 907,837 C 946.456725297956,834.595550060591 963.8853159788632,839.8302119655135 997,837 C 1030.1146840211368,834.1697880344865 1078.9154613825035,823.2747021985375 1121,819 C 1163.0845386174965,814.7252978014625 1198.452838491122,817.0709792403363 1239,816 C 1279.547161508878,814.9290207596637 1325.273184653008,810.4413808401173 1365,813 C 1404.726815346992,815.5586191598827 1438.454422896846,825.1634973991951 1474,826 C 1509.545577103154,826.8365026008049 1546.909123759608,818.9046295631024 1584,817 C 1621.090876240392,815.0953704368976 1657.9090820647211,819.2179843483955 1693,811 C 1728.0909179352789,802.7820156516045 1761.4545479815083,782.2234330433155 1799,780 C 1836.5454520184917,777.7765669566845 1878.2727260092458,793.8882834783423 1920,810 C 1920,810 1920,1080 1920,1080 Z" fill="#444cf7" opacity="0.44999999999999996"/><path d="M 0,1080 C 0,1080 0,900 0,900 C 29.41511784057795,901.7555042574651 58.8302356811559,903.5110085149302 101,909 C 143.1697643188441,914.4889914850698 198.09417511595439,923.7114701977443 241,918 C 283.9058248840456,912.2885298022557 314.7930638550265,891.6431106940921 347,895 C 379.2069361449735,898.3568893059079 412.73356946393966,925.7160870258867 453,924 C 493.26643053606034,922.2839129741133 540.2726582892146,891.4925412023604 574,880 C 607.7273417107854,868.5074587976396 628.175797379202,876.3137481646714 660,885 C 691.824202620798,893.6862518353286 735.0241521939769,903.2524661389539 781,905 C 826.9758478060231,906.7475338610461 875.7275938448905,900.6763872795133 918,909 C 960.2724061551095,917.3236127204867 996.0654724264616,940.0419847429927 1031,928 C 1065.9345275735384,915.9580152570073 1100.010516449263,869.1556737485162 1135,867 C 1169.989483550737,864.8443262514838 1205.8924617764865,907.3353202629422 1237,916 C 1268.1075382235135,924.6646797370578 1294.4196364447905,899.5030451997151 1336,892 C 1377.5803635552095,884.4969548002849 1434.428992444352,894.6524989381979 1478,901 C 1521.571007555648,907.3475010618021 1551.8643937778024,909.8869590474932 1592,906 C 1632.1356062221976,902.1130409525068 1682.113432444438,891.7996648718288 1713,895 C 1743.886567555562,898.2003351281712 1755.681876444446,914.9143814651917 1787,918 C 1818.318123555554,921.0856185348083 1869.159061777777,910.5428092674042 1920,900 C 1920,900 1920,1080 1920,1080 Z" fill="#444cf7" opacity="0.49999999999999994"/><path d="M 0,1080 C 0,1080 0,990 0,990 C 34.49961933959078,1000.5491748441784 68.99923867918156,1011.098349688357 102,1015 C 135.00076132081844,1018.901650311643 166.50266462286461,1016.155776090751 211,1017 C 255.49733537713539,1017.844223909249 312.99010282936007,1022.2785459486388 357,1023 C 401.00989717063993,1023.7214540513612 431.5369240596953,1020.7300401146944 462,1017 C 492.4630759403047,1013.2699598853056 522.862200931859,1008.8012935925838 558,1010 C 593.137799068141,1011.1987064074162 633.0142722128688,1018.0647855149707 667,1016 C 700.9857277871312,1013.9352144850293 729.080710216666,1002.9395643475333 771,993 C 812.919289783334,983.0604356524667 868.6628869204668,974.1769570948965 915,972 C 961.3371130795332,969.8230429051035 998.2677421014664,974.3526072728808 1033,976 C 1067.7322578985336,977.6473927271192 1100.266144673668,976.4126138135799 1132,970 C 1163.733855326332,963.5873861864201 1194.6676792038625,951.9969374727992 1235,964 C 1275.3323207961375,976.0030625272008 1325.0631385108823,1011.5996362952233 1362,1019 C 1398.9368614891177,1026.4003637047767 1423.0797667526087,1005.6045173463076 1463,1001 C 1502.9202332473913,996.3954826536924 1558.617794478682,1007.9822943195464 1593,1000 C 1627.382205521318,992.0177056804536 1640.4490553326625,964.4663053755067 1676,966 C 1711.5509446673375,967.5336946244933 1769.585984190668,998.1524841784266 1814,1007 C 1858.414015809332,1015.8475158215734 1889.2070079046662,1002.9237579107867 1920,990 C 1920,990 1920,1080 1920,1080 Z" fill="#444cf7" opacity="0.5499999999999999"/></svg>